<?xml version="1.0" encoding="UTF-8"?>
<!DOCTYPE svg  PUBLIC '-//W3C//DTD SVG 1.1//EN'  'http://www.w3.org/Graphics/SVG/1.1/DTD/svg11.dtd'>
<svg enable-background="new 0 0 2724.2725 1725.1726" version="1.1" viewBox="0 0 2724.2725 1725.1726" xml:space="preserve" xmlns="http://www.w3.org/2000/svg">
	<path d="m0 1725.2h2724.3v-1725.2h-2724.3v1725.2zm771.23-426.73c-106.85 82.969-199.09 179.95-277.05 290.52-1.907 2.7048-3.9116 5.3433-5.954 7.9473-0.3264 0.4163-1.0938 0.4866-1.1809 0.5222 1.0489-8.1753 5.4189-15.12 10.2-21.96 91.381-130.74 200.77-243.57 332.75-333.75 75.794-51.79 156.91-92.915 245.09-119.42 49.62-14.915 100.23-24.508 151.95-27.971 2.6327-0.1761 5.3217-0.031 7.9441 0.2922 3.0416 0.3748 6.0416 1.266 7.0513 4.6654 1.077 3.6261-0.6344 6.5837-3.1313 8.9156-4.1193 3.8469-9.2701 4.9226-14.785 4.9296-16.687 0.0208-33.265 1.5885-49.828 3.5046-59.973 6.9382-117.44 23.265-173.18 46.083-83.219 34.069-159.06 80.726-229.88 135.72zm807.87-166.3c-4.4225 1.7861-9.1481 1.6636-13.806 1.7324-35.989 0.5317-71.942 1.6173-107.79 5.2689-63.225 6.4404-124.71 19.734-182.88 46.082-4.8993 2.2191-10.945 2.4602-16.097 8.9365 70.996-15.91 139.57-34.414 211.24-44.09-5.22 6.4742-6.5625 7.3982-14.497 9.1173-8.459 1.8328-17.032 3.1576-25.46 5.1151-31.596 7.3392-61.499 19.498-91.166 32.315-31.167 13.466-61.914 27.93-93.888 39.479-14.73 5.3204-29.756 9.5631-44.919 13.486-12.948 3.3502-24.435-0.0903-35.519-5.874-8.2864-4.3239-8.6045-7.7402-1.9711-14.367 24.934-24.908 52.987-45.602 84.305-61.807 39.473-20.425 81.603-32.097 125.44-38.382 49.702-7.1263 99.684-6.452 149.67-6.0336 18.663 0.1563 37.326 0.2802 55.987 0.4922 3.2305 0.0366 8.2084-1.1318 8.9346 2.3325 0.923 4.4024-4.3678 4.8942-7.59 6.1957zm709.79 334.7c-82.83-115.51-182.22-213.88-302.15-290.76-60.332-38.674-124.52-69.123-194.06-87.576-36.538-9.6946-73.669-15.219-111.43-16.598-4.7245-0.1726-9.3844-0.2821-13.02-3.9094-1.9567-1.9525-3.4703-4.1908-2.8097-7.1018 0.7155-3.1522 3.4186-3.9824 6.1118-4.2246 2.9614-0.2664 5.9779-0.2162 8.9509-0.0154 55.901 3.7754 109.87 16.405 162.33 35.748 81.1 29.9 154.23 73.802 221.84 127.18 87.234 68.87 161.8 149.65 225.08 240.93 5.5706 8.0353 6.1753 9.6001 7.2488 16.888-2.8732-2.4112-5.2872-6.6422-8.099-10.563zm387.78 46.664c-12.586-19.425-24.929-39.148-38.347-58.167-68.998-97.808-154.38-178.82-253.04-246.08-119.85-81.71-250.84-138.53-391.32-173.89-60.494-15.227-121.83-25.691-183.92-31.571-33.508-3.1736-67.116-5.0488-100.81-4.8806-3.321 0.0166-6.7098 0.1099-9.9509-0.4758-5.7971-1.0479-8.5317-4.1611-8.8646-9.2059-0.3601-5.4573 2.3192-9.7998 7.4952-11.691 3.4795-1.2716 7.165-1.4279 10.854-1.3555 36.316 0.713 72.547 2.4325 108.7 6.4138 81.738 9.0027 161.55 26.711 239.47 52.746 174.01 58.142 329.51 147.72 462.85 274.45 57.26 54.423 107.28 114.87 148.87 182.16 4.0904 6.6163 6.7918 13.61 8.0118 21.543zm-128.88-316.89c-6.9009-5.6021-13.706-11.328-20.717-16.788-128.81-100.31-269.84-177.99-425.14-229.1-68.206-22.448-137.95-38.142-209.51-44.756-76.831-7.1016-153.05-3.605-228.05 16.021-5.3127 1.39-10.43 2.1206-15.551-0.4153-3.49-1.7283-6.1702-4.2072-6.1171-8.3613 0.0503-3.9369 3.1477-5.6298 6.2314-7.0404 4.9017-2.2421 10.254-2.8289 15.46-3.8801 57.391-11.589 115.32-16.007 173.84-13.782 118.54 4.5067 231.55 33.19 340.88 77.769 130.17 53.081 248.96 125.29 357.63 214.32 5.2268 4.2816 8.6655 9.7551 11.047 16.015zm-1018.6-751.08c0.3695-4.155 0.8069-6.8251 6.0511-6.7659 7.4397 0.084 8.0081-0.1465 8.8464 5.9664 2.2634 16.506 4.8418 32.935 9.2069 49.045 4.3688 16.122 10.412 31.57 17.833 46.539 2.4216 4.8849 4.9683 6.4603 10.77 5.7471 52.758-6.4872 104.03-19.208 154.43-35.784 78.003-25.655 152.33-59.928 225.75-96.315 75.17-37.251 148.97-77.192 224.44-113.85 30.248-14.695 60.745-28.854 91.639-42.142 6.7534-2.905 11.118-0.0345 11.679 7.3838 0.158 2.087-1.0154 2.9849-2.5486 3.7412-2.3882 1.178-4.793 2.3232-7.2019 3.4585-59.985 28.271-118.12 60.056-175.96 92.414-1.9463 1.0886-4.323 1.6923-5.3618 3.9956 0.3301 0.5851 0.5056 1.4244 0.9404 1.5922 34.857 13.45 56.32 39.59 67.992 73.953 18.835 55.449 13.199 109.74-11.033 162.29-23.929 51.888-63.214 89.504-113.11 115.98-60.122 31.896-124.27 47.421-192.56 42.186-45.557-3.4924-89.443-13.972-129.98-35.954-18.906-10.253-35.764-23.191-49.551-39.86-25.255-30.534-33.265-65.264-25.206-103.89 0.7231-3.4661 1.2797-6.9668 2.1072-11.516-14.036 2.9012-26.926 5.6583-39.855 8.2145-16.012 3.1656-32.175 5.3759-48.335 7.6482-5.8708 0.8256-8.905-0.5735-11.499-6.1124-8.8468-18.892-13.904-38.825-17.318-59.231-4.3691-26.119-4.5093-52.386-2.1678-78.724zm102.34 333.55c11.197 4.3994 21.993 9.5398 31.582 16.919 16.847 12.964 20.408 29.134 8.7319 49.348-5.6754 9.8254-14.201 16.848-24.759 20.886-14.485 5.5389-29.524 8.0846-45.068 6.0299-8.276-1.094-16.546-1.6957-24.903-1.4753-13.978 0.3688-25.862 5.6088-36.053 14.979-6.6411 6.1061-12.407 13.018-18.13 19.959-18.488 22.42-40.237 40.719-67.057 52.405-4.376 1.9064-5.6418 5.0728-6.6338 9.0529-4.505 18.077-9.0857 36.135-13.672 54.191-0.9827 3.8685-2.5298 7.642-3.08 11.563-1.5374 10.953-8.9486 14.832-18.634 16.063-2.9487 0.3749-5.9915 0.3644-8.9595 0.1294-2.7755-0.2197-4.1874-1.9656-3.3925-4.8446 1.0627-3.8488 2.3961-7.6252 3.3881-11.49 5.3749-20.945 10.67-41.911 16.02-62.863 0.8851-3.4664 1.5819-6.1366-3.5615-7.2393-5.629-1.2069-8.5182-5.9064-10.227-11.306-1.3213-4.1753-1.7878-8.4451-2.2296-12.758-2.9374-28.675-17.963-48.763-43.686-61.152-17.891-8.6166-37.192-12.357-56.474-16.148-13.386-2.6317-26.79-5.1848-40.12-8.0745-5.1819-1.1234-10.276-2.8298-15.253-4.6908-24.518-9.1675-37.373-26.738-37.836-53.095-0.0234-1.3301-0.0801-2.66-0.1516-3.9885-0.0177-0.3263-0.1547-0.6462-0.3197-1.2955-3.9969-1.5006-7.9746 1.6825-11.356-1.9457 3.3665-5.6732 9.1683-7.4089 14.934-8.3689 62.697-10.438 124.95-23.653 188.3-30.057 78.486-7.934 154.86 0.2949 228.6 29.269zm-1281.2-528.72c1.126-3.0414 0.3339-7.6316 6.5407-6.116 20.692 5.0529 41.345 10.232 61.825 16.085 88.192 25.202 173.2 59.004 257.22 95.43 79.096 34.289 157.2 70.818 236.62 104.38 77.007 32.542 154.98 62.385 235.9 83.913 46.048 12.25 92.6 21.963 139.94 27.802 4.8635 0.5999 7.9025-0.033 10.836-4.3096 42.403-61.807 84.72-123.66 119.03-190.52 8.0588-15.703 15.613-31.644 22.737-47.793 1.0044-2.2771 1.2406-5.8936 4.6284-5.5931 3.2148 0.285 6.739 1.1469 9.1614 3.4838 2.3527 2.2693 0.3359 5.0398-0.4023 7.4468-5.3684 17.501-11.392 34.78-17.945 51.872-24.848 64.809-56.636 126.31-89.448 187.32-7.7257 14.364-16.072 28.399-23.58 42.872-3.2461 6.2577-7.4567 7.0551-13.784 6.1415-42.213-6.0947-84.071-13.895-125.3-24.898-2.5314-0.6753-5.1118-1.5975-7.9176-0.795-1.9929 9.3741-3.5902 18.874-6.0568 28.143-10.383 39.019-32.737 70.319-63.178 96.151-31.234 26.506-67.19 44.209-106.34 55.545-78.837 22.827-157.79 22.799-236.46-0.4906-65.764-19.47-114.57-60.877-149.46-119.18-24.477-40.9-35.918-85.702-37.751-133.11-1.6692-43.17 4.3467-85.052 21.854-124.84 6.2859-14.288 12.602-28.682 25.575-39.151-2.0174-1.176-3.3664-2.1252-4.8412-2.799-76.662-35.026-154.49-67.032-235.46-90.911-10.214-3.0125-20.421-6.0869-30.752-8.6489-5.0133-1.2431-4.4461-4.06-3.2002-7.425zm-148.61 991.61c81.567-67.002 168.66-125.84 261.2-176.58 105.49-57.84 215.69-104.17 332.19-134.93 62.248-16.437 125.34-27.974 189.53-33.663 51.573-4.5719 103.14-5.0427 154.73-1.2303 38.229 2.8253 76.098 8.4546 113.59 16.53 4.2303 0.9113 8.4666 1.9393 12.131 4.4182 5.3771 3.6373 6.1052 8.8412 1.5234 13.411-5.7646 5.7498-12.889 6.3121-20.448 4.5258-12.953-3.0614-25.853-6.3829-38.881-9.0863-59.343-12.313-119.38-16.121-179.86-14.331-78.954 2.3374-156.36 15.079-232.6 35.116-149.95 39.409-289.39 103.1-421.4 183.7-60.059 36.666-117.62 76.932-172.47 121.03-4.7584 3.8256-9.609 7.5363-15.52 12.164 3.9115-9.4335 9.6-15.571 16.294-21.071zm-155.49 367.96c51.992-82.988 114.68-157.09 186.3-223.66 148.79-138.3 320.52-238.57 511.35-306.84 83.913-30.019 169.96-51.952 258.02-65.701 62.306-9.7278 125.01-15.013 188.11-15.105 3.9781-0.0059 8.0807 0.0286 11.909 0.9469 7.3002 1.7516 11.125 7.6932 10.362 14.959-0.6736 6.4192-4.5981 9.913-12.3 10.701-2.6431 0.2705-5.3262 0.1824-7.9913 0.1971-96.936 0.5352-192.76 11.239-287.6 31.185-136.38 28.682-266.36 75.132-389.6 140.24-116.57 61.581-222.5 137.74-315.54 231.42-61.792 62.222-115.72 130.62-160.87 205.86-1.1987 1.9978-2.3528 4.0281-3.6675 5.9475-0.7084 1.0339-1.7139 1.8643-2.3472 2.5347 2.2682-11.802 7.4282-22.415 13.865-32.689z" fill="#FFEA00"/>
	<path d="m1445.6 323.66c-3.3878-0.3004-3.624 3.316-4.6284 5.5931-7.124 16.149-14.678 32.09-22.737 47.793-34.312 66.859-76.63 128.71-119.03 190.52-2.9341 4.2766-5.973 4.9094-10.836 4.3096-47.336-5.8387-93.888-15.552-139.94-27.802-80.922-21.528-158.89-51.371-235.9-83.913-79.417-33.561-157.53-70.09-236.62-104.38-84.026-36.426-169.03-70.228-257.22-95.43-20.48-5.8525-41.133-11.032-61.825-16.085-6.2068-1.5156-5.4147 3.0746-6.5407 6.116-1.2458 3.365-1.8131 6.1819 3.2001 7.425 10.33 2.562 20.538 5.6365 30.752 8.6489 80.964 23.879 158.79 55.886 235.46 90.911 1.4749 0.6737 2.8239 1.6229 4.8412 2.799-12.974 10.469-19.289 24.864-25.575 39.151-17.507 39.792-23.523 81.674-21.854 124.84 1.833 47.405 13.274 92.207 37.751 133.11 34.892 58.304 83.694 99.711 149.46 119.18 78.667 23.29 157.62 23.318 236.46 0.4906 39.153-11.337 75.109-29.04 106.34-55.545 30.441-25.832 52.795-57.133 63.178-96.151 2.4666-9.2689 4.0638-18.769 6.0568-28.143 2.8058-0.8025 5.3862 0.1198 7.9176 0.795 41.232 11.003 83.09 18.804 125.3 24.898 6.3274 0.9136 10.538 0.1162 13.784-6.1415 7.5077-14.473 15.854-28.508 23.58-42.872 32.812-61.005 64.6-122.51 89.448-187.32 6.5529-17.091 12.577-34.371 17.945-51.872 0.7383-2.407 2.755-5.1775 0.4023-7.4468-2.4222-2.337-5.9464-3.1988-9.1613-3.4838zm-526.14 191.91c4.1942-4.7821 9.5997-5.8019 15.412-4.8634 18.422 2.9746 33.559 11.955 46.107 25.615 2.6271 2.8599 2.5137 5.9093 1.6693 9.2708-3.1656 12.602-14.347 19.971-32.292 19.597-10.304-0.7274-21.606-4.8523-30.465-14.362-9.5888-10.293-9.6582-24.737-0.4305-35.258zm55.712 92.735c-11.996 7.2107-25.019 9.7827-38.919 8.8645 7.7318-3.0903 16.456-3.8044 22.812-9.913 0.349-0.3354 1.4268-0.4819 1.7214-0.219 4.5559 4.0659 9.497 0.9842 14.385 1.2675zm-58.697-27.402c-0.467 0.809-1.3128 1.89-2.05 1.9398-1.1865 0.0802-1.2521-1.2401-1.0938-2.1781 0.1577-0.9333 0.4738-1.931 1.8391-1.5917 0.8227 0.3394 2.0402 0.5561 1.3047 1.83zm243.6 18.008c-12.478 50.756-42.666 88.014-87.238 114.27-31.407 18.505-65.605 29.432-101.22 35.674-58.244 10.207-116.05 7.6431-173.34-7.5432-60.215-15.963-107.24-49.619-138.76-103.54-27.494-47.024-36.33-98.205-30.859-152.12 2.3035-22.697 7.6601-44.594 16.902-65.479 2.0184-4.5613 4.1007-9.1583 6.7491-13.364 5.5659-8.8385 10.707-17.708 8.4774-30.339 81.337 38.295 159.84 78.302 242.13 116.17-5.8541 1.1997-9.2559 1.9727-12.686 2.5846-8.4222 1.5024-15.978 4.8972-22.054 10.923-11.816 11.717-20.83 25.39-24.433 41.721-6.442 29.194 3.0366 53.229 25.941 71.913 14.662 11.96 32.071 17.717 50.725 18.913 27.058 1.7349 52.371-4.5222 74.98-19.715 15.153-10.182 26.338-23.483 28.588-42.562 0.912-7.7335-0.0402-15.235-2.1733-22.71-0.8802-3.0847-3.1088-5.8677-2.4111-10.757 28.275 11.444 55.972 21.926 84.186 30.956 17.12 5.479 34.353 10.602 51.517 15.945 6.6186 2.0608 6.68 2.1582 4.9841 9.0556z" fill="#050502"/>
	<path d="m2278.1 257.98c-30.894 13.289-61.391 27.448-91.639 42.142-75.467 36.662-149.27 76.604-224.44 113.85-73.426 36.387-147.75 70.66-225.75 96.315-50.399 16.576-101.67 29.297-154.43 35.784-5.8018 0.7133-8.3484-0.8622-10.77-5.7471-7.4214-14.97-13.464-30.417-17.833-46.539-4.3651-16.109-6.9435-32.539-9.2069-49.045-0.8384-6.1129-1.4067-5.8824-8.8464-5.9664-5.2443-0.0592-5.6816 2.6108-6.0511 6.7659-2.3414 26.339-2.2013 52.605 2.168 78.724 3.4135 20.406 8.4707 40.339 17.318 59.231 2.5939 5.5389 5.6281 6.938 11.499 6.1124 16.16-2.2723 32.323-4.4825 48.335-7.6482 12.93-2.5562 25.82-5.3132 39.855-8.2145-0.8275 4.549-1.384 8.0497-2.1072 11.516-8.059 38.63-0.0485 73.36 25.206 103.89 13.787 16.669 30.645 29.607 49.551 39.86 40.532 21.982 84.418 32.461 129.98 35.954 68.294 5.2356 132.44-10.289 192.56-42.186 49.9-26.473 89.185-64.09 113.11-115.98 24.232-52.547 29.868-106.84 11.033-162.29-11.672-34.363-33.136-60.503-67.992-73.953-0.4348-0.1677-0.6104-1.0071-0.9404-1.5922 1.0388-2.3033 3.4155-2.907 5.3618-3.9956 57.838-32.358 115.98-64.143 175.96-92.414 2.4089-1.1353 4.8137-2.2805 7.2019-3.4585 1.5332-0.7563 2.7065-1.6542 2.5486-3.7412-0.5619-7.4183-4.9262-10.289-11.68-7.3838zm-468.39 264.64c1.0669-3.2135 2.6595-5.9238 6.14-7.3527 5.8394-2.3973 11.536-5.1437 17.282-7.7653 3.1278-1.4269 6.266-1.6724 9.7074-1.0566 5.5863 0.9993 11.058 2.2449 16.344 4.345 12.161 4.8328 13.833 7.6602 11.776 20.281-2.833 17.381-17.055 30.575-33.013 30.628-19.618 0.0653-34.434-20.414-28.237-39.08zm61.735 73.653c-10.384 12.713-23.011 20.424-40.203 18.86 7.8333-2.6156 13.054-8.9703 19.564-13.01 5.6469-3.5035 12.952-6.5843 20.638-5.8507zm257.68-135.91c16.156 51.724 8.0295 100.79-18.84 147-22.973 39.513-56.632 67.809-97.214 87.826-44.057 21.731-90.567 35.2-139.94 36.695-47.892 1.4502-94.189-6.3735-137.99-26.561-14.904-6.8688-28.639-15.568-40.821-26.66-26.5-24.128-35.968-54.466-32.137-89.36 2.2089-20.116 2.6069-20.081 21.719-25.509 23.703-6.7319 46.977-14.748 70.067-23.322 3.0426-1.1299 6.1418-2.1072 11.002-3.7648-7.741 18.458-8.7097 35.327-4.2655 52.738 3.8416 15.05 13.11 25.174 26.84 31.514 16.26 7.5082 33.504 8.8801 50.861 5.9883 21.847-3.6401 41.479-12.62 56.95-28.85 14.856-15.584 23.568-33.78 20.244-56.101-1.6818-11.294-7.0121-20.793-15.063-28.662-3.4316-3.3541-6.0454-6.8759-7.5122-11.459-2.0387-6.3694-6.974-11.17-10.119-16.721 1.6469-2.5405 3.9747-3.1428 5.9967-4.1367 58.885-28.943 116.26-60.716 173.37-92.958 6.52-3.6809 10.933-3.3778 16.909 0.748 25.625 17.693 40.906 42.62 49.943 71.553zm-245.94 91.665c0.5265-3.1378 2.678-5.0492 5.04-6.8879 1.8191 8.7944 1.8191 8.7944-5.04 6.8879z" fill="#050502"/>
	<path d="m1338.7 842.71c0.0269-0.0255 0.0537-0.0507 0.0804-0.0763l-0.094-0.231c0.0051 0.1056 9e-3 0.2037 0.0136 0.3073z" fill="#050502"/>
	<path d="m1663.1 796.02c-9.5896-7.3795-20.385-12.52-31.582-16.919-73.743-28.974-150.12-37.203-228.6-29.269-63.347 6.4038-125.6 19.619-188.3 30.057-5.7655 0.96-11.567 2.6957-14.934 8.3689 3.381 3.6282 7.3586 0.4451 11.356 1.9457 0.165 0.6493 0.302 0.9692 0.3197 1.2955 0.0715 1.3285 0.1282 2.6584 0.1516 3.9885 0.4634 26.357 13.318 43.928 37.836 53.095 4.9769 1.861 10.071 3.5674 15.253 4.6908 13.331 2.8896 26.734 5.4427 40.12 8.0745 19.282 3.791 38.582 7.5316 56.474 16.148 25.724 12.389 40.749 32.477 43.686 61.152 0.4418 4.3134 0.9083 8.5831 2.2296 12.758 1.7089 5.3994 4.598 10.099 10.227 11.306 5.1434 1.1027 4.4467 3.7728 3.5615 7.2393-5.3499 20.952-10.645 41.918-16.02 62.863-0.9919 3.8652-2.3253 7.6417-3.3881 11.49-0.7949 2.879 0.6169 4.6249 3.3925 4.8446 2.968 0.235 6.0107 0.2455 8.9595-0.1294 9.6853-1.231 17.097-5.11 18.634-16.063 0.5502-3.9207 2.0973-7.6941 3.08-11.563 4.5868-18.056 9.1675-36.114 13.672-54.191 0.9919-3.9801 2.2578-7.1465 6.6338-9.0529 26.82-11.686 48.569-29.984 67.057-52.405 5.7236-6.9408 11.489-13.852 18.13-19.959 10.191-9.37 22.075-14.61 36.053-14.979 8.3569-0.2203 16.627 0.3813 24.903 1.4753 15.543 2.0547 30.583-0.491 45.068-6.0299 10.558-4.0377 19.084-11.06 24.759-20.886 11.676-20.214 8.1149-36.384-8.7319-49.348zm-380.76-13.09c2.6899-7.8773 9.0634-8.3741 15.739-8.2811-4.8833 3.4043-7.546 11.142-15.739 8.2811zm56.57 60.006l-0.1191-0.2927c-0.0267 0.0256-0.0536 0.0508-0.0804 0.0763 0.4912 10.749-0.5123 11.213-14.262 7.5271 5.071-2.1683 10.277-3.748 14.262-7.5271-0.0046-0.1036-0.0085-0.2017-0.0135-0.3073l0.094 0.231c0.1033-0.0991 0.2094-0.1931 0.311-0.2953l-0.192 0.588zm28.895 15.793c-4.6859-1.4591-9.4613-1.0841-14.824-4.2688 7.0956-1.6866 11.833-5.8893 18.011-8.8499-0.1186 4.9898-1.1849 8.9726-3.1873 13.119zm65.426 80.975c9.812 6.4568 19.415-0.6493 26.985 4.9072-7.5521 7.9567-19.88 6.6663-26.985-4.9072zm55.835-107.6c3.3093-9.338 3.3138-9.3842 12.037-8.5358 3.2452 0.3157 6.6649 0.14 10.226 3.0206-8.1588 0.301-12.764 9.761-22.263 5.5152zm55.545 4.698c-0.9893 0.0448-2.4836 0.6787-2.8809 0.2466-4.4213-4.811-9.7893-6.4003-16.138-5.4219-0.2417 0.0371-1.0066-1.6517-1.0902-2.5759-0.2349-2.5953 1.7455-2.2295 3.3357-2.1976 1.3212 0.0264 2.6401 0.1793 3.9592 0.2858 7.5492 0.6094 15.098 1.2217 24.069 1.948-3.4466 4.658-6.4957 7.4988-11.255 7.715zm41.199-32.938c-8.1715 5.1556-17.419 6.3644-26.86 6.2268-24.346-0.3546-48.493-3.3694-72.702-5.5579-10.945-0.9896-21.883-2.139-32.85-2.7791-8.8783-0.5181-17.64-2.9238-26.719-1.0681-3.2577 0.6659-7.2942 0.7845-9.4896-3.531-1.2316-2.4204-4.1871-1.9065-6.3805-1.566-4.2584 0.6611-8.5721 1.4226-12.625 2.8284-4.6272 1.6047-9.0377 2.207-13.547 0.0664-2.2035-1.0458-4.517-1.1527-6.8398-0.9908-13.875 0.967-27.063-2.6112-40.271-6.0336-1.923-0.4983-3.7805-1.2693-5.6401-1.9875-2.5308-0.9775-5.443-2.1946-5.8058-4.9727-0.4756-3.6431 3.022-4.7736 5.6512-6.0457 4.7288-2.2875 9.8591-3.6638 11.284-10.085 0.615-2.7716 4.511-2.3098 7.036-2.6378 30.07-3.9077 60.199-6.828 90.579-7.1183 42.57-0.4067 84.401 4.3536 125.36 16.174 1.2695 0.3665 2.5365 0.7423 4.4089 1.2906-4.9718 9.7242-4.7777 10.325 4.4091 13.207 3.8217 1.199 7.7076 2.2729 11.057 4.4991 4.8724 3.2391 4.9455 6.9275-0.0528 10.081zm25.016 48.226c6.1127-5.5796 13.114-3.562 17.798-6.9548 5.2545-3.8065 11.21-3.6062 17.127-3.4421-10.245 6.331-21.363 8.9457-34.925 10.397z" fill="#050502"/>
	<path d="m1201.9 999.6c-3.8282-0.9183-7.9308-0.9528-11.909-0.9469-63.098 0.0922-125.81 5.377-188.11 15.105-88.061 13.749-174.1 35.681-258.02 65.701-190.83 68.268-362.56 168.54-511.35 306.84-71.617 66.565-134.3 140.67-186.3 223.66-6.4368 10.274-11.597 20.887-13.865 32.689 0.6333-0.6704 1.6389-1.5007 2.3472-2.5347 1.3147-1.9194 2.4688-3.9497 3.6675-5.9475 45.15-75.239 99.075-143.63 160.87-205.86 93.036-93.683 198.96-169.84 315.54-231.42 123.25-65.104 253.22-111.55 389.6-140.24 94.844-19.946 190.66-30.65 287.6-31.185 2.6652-0.0148 5.3483 0.0734 7.9913-0.1971 7.7014-0.7878 11.626-4.2816 12.3-10.701 0.7625-7.2661-3.0622-13.208-10.362-14.959z" fill="#050502"/>
	<path d="m1265.1 916.53c-3.6646-2.4789-7.9008-3.507-12.131-4.4182-37.487-8.0754-75.356-13.705-113.59-16.53-51.592-3.8124-103.16-3.3416-154.73 1.2303-64.183 5.6897-127.28 17.226-189.53 33.663-116.5 30.763-226.7 77.092-332.19 134.93-92.544 50.74-179.63 109.58-261.2 176.58-6.6945 5.4993-12.383 11.637-16.294 21.07 5.9111-4.6279 10.762-8.3386 15.52-12.164 54.854-44.103 112.41-84.368 172.47-121.03 132.01-80.595 271.45-144.29 421.4-183.7 76.242-20.037 153.65-32.779 232.6-35.116 60.484-1.7904 120.52 2.0177 179.86 14.331 13.028 2.7034 25.928 6.0249 38.881 9.0863 7.5585 1.7864 14.683 1.224 20.448-4.5258 4.5817-4.5694 3.8535-9.7733-1.5235-13.411z" fill="#050502"/>
	<path d="m2519.8 1309.8c-133.34-126.73-288.84-216.31-462.85-274.45-77.918-26.035-157.73-43.744-239.47-52.746-36.149-3.9813-72.38-5.7008-108.7-6.4138-3.689-0.0724-7.3745 0.0839-10.854 1.3555-5.176 1.8914-7.8553 6.2339-7.4952 11.691 0.3329 5.0448 3.0675 8.1581 8.8646 9.2059 3.2411 0.5857 6.6299 0.4924 9.9509 0.4758 33.69-0.1682 67.298 1.707 100.81 4.8806 62.085 5.8801 123.42 16.344 183.92 31.571 140.48 35.36 271.47 92.175 391.32 173.89 98.654 67.258 184.04 148.27 253.04 246.08 13.418 19.02 25.761 38.743 38.347 58.167-1.22-7.9333-3.9214-14.927-8.0117-21.543-41.597-67.29-91.611-127.74-148.87-182.16z" fill="#050502"/>
	<path d="m1577.8 1123.6c-18.662-0.212-37.325-0.3359-55.987-0.4922-49.988-0.4185-99.97-1.0928-149.67 6.0336-43.836 6.2852-85.966 17.957-125.44 38.382-31.318 16.205-59.371 36.9-84.305 61.807-6.6334 6.6265-6.3153 10.043 1.9711 14.367 11.084 5.7837 22.571 9.2242 35.519 5.874 15.164-3.9232 30.19-8.1659 44.919-13.486 31.974-11.549 62.721-26.014 93.888-39.479 29.668-12.818 59.57-24.976 91.166-32.315 8.4276-1.9575 17-3.2823 25.46-5.1151 7.9343-1.7191 9.2769-2.6431 14.497-9.1173-71.675 9.677-140.25 28.181-211.24 44.09 5.1521-6.4763 11.198-6.7174 16.097-8.9365 58.17-26.348 119.65-39.642 182.88-46.082 35.846-3.6516 71.798-4.7372 107.79-5.2689 4.6578-0.0688 9.3834 0.0537 13.806-1.7324 3.2222-1.3015 8.5129-1.7933 7.59-6.1956-0.7262-3.4644-5.7041-2.296-8.9346-2.3326z" fill="#050502"/>
	<path d="m2536.8 1180.6c-108.67-89.032-227.46-161.24-357.63-214.32-109.32-44.579-222.33-73.262-340.88-77.769-58.526-2.225-116.45 2.1935-173.84 13.782-5.2064 1.0513-10.558 1.6381-15.46 3.8801-3.0837 1.4106-6.1812 3.1035-6.2314 7.0404-0.0531 4.1542 2.6271 6.6331 6.1171 8.3613 5.1211 2.5359 10.238 1.8053 15.551 0.4153 75.007-19.626 151.22-23.122 228.05-16.021 71.56 6.6146 141.3 22.309 209.51 44.756 155.3 51.113 296.34 128.79 425.14 229.1 7.0112 5.4604 13.816 11.186 20.717 16.788-2.3816-6.26-5.8203-11.734-11.047-16.015z" fill="#050502"/>
	<path d="m1235 1094.6c-2.6224-0.3232-5.3114-0.4684-7.9441-0.2922-51.727 3.463-102.33 13.056-151.95 27.971-88.175 26.503-169.29 67.629-245.09 119.42-131.99 90.185-241.37 203.01-332.75 333.75-4.7813 6.8405-9.1514 13.785-10.2 21.96 0.0872-0.0356 0.8545-0.106 1.1809-0.5222 2.0424-2.604 4.047-5.2424 5.954-7.9473 77.955-110.57 170.2-207.55 277.05-290.52 70.824-54.995 146.66-101.65 229.88-135.72 55.737-22.818 113.21-39.145 173.18-46.083 16.562-1.9161 33.141-3.4839 49.828-3.5046 5.515-7e-3 10.666-1.0826 14.785-4.9296 2.4969-2.3319 4.2084-5.2896 3.1313-8.9156-1.0095-3.3995-4.0095-4.2908-7.0511-4.6655z" fill="#050502"/>
	<path d="m2064.7 1219.6c-67.614-53.38-140.74-97.282-221.84-127.18-52.464-19.343-106.43-31.972-162.33-35.748-2.973-0.2008-5.9895-0.251-8.9509 0.0154-2.6932 0.2422-5.3964 1.0724-6.1118 4.2246-0.6606 2.911 0.853 5.1493 2.8097 7.1018 3.6354 3.6273 8.2953 3.7368 13.02 3.9094 37.758 1.3793 74.89 6.9036 111.43 16.598 69.546 18.453 133.73 48.903 194.06 87.576 119.93 76.878 219.32 175.25 302.15 290.76 2.8118 3.921 5.2258 8.152 8.0991 10.563-1.0735-7.2876-1.6782-8.8524-7.2488-16.888-63.282-91.28-137.84-172.06-225.08-240.93z" fill="#050502"/>
	<path d="m1155.1 589.85c-17.164-5.3433-34.397-10.466-51.517-15.945-28.214-9.0297-55.911-19.512-84.186-30.956-0.6976 4.8889 1.5309 7.6719 2.4111 10.757 2.1332 7.4747 3.0853 14.976 2.1733 22.71-2.2501 19.079-13.435 32.379-28.588 42.562-22.609 15.193-47.922 21.45-74.98 19.715-18.654-1.1962-36.064-6.9534-50.725-18.913-22.904-18.684-32.383-42.719-25.941-71.913 3.6034-16.331 12.617-30.004 24.433-41.721 6.0765-6.026 13.632-9.4208 22.054-10.923 3.4305-0.6119 6.8323-1.3849 12.686-2.5846-82.292-37.864-160.8-77.871-242.13-116.17 2.23 12.631-2.9114 21.5-8.4774 30.339-2.6484 4.2054-4.7308 8.8025-6.7491 13.364-9.2417 20.886-14.598 42.782-16.902 65.479-5.4716 53.914 3.3648 105.09 30.859 152.12 31.526 53.919 78.549 87.575 138.76 103.54 57.285 15.186 115.1 17.751 173.34 7.5432 35.619-6.2423 69.817-17.169 101.22-35.674 44.571-26.261 74.759-63.519 87.238-114.27 1.6959-6.8977 1.6345-6.9951-4.9841-9.0556z" fill="#FFEA00"/>
	<path d="m934.85 510.7c-5.8123-0.9385-11.218 0.0813-15.412 4.8634-9.2278 10.522-9.1583 24.965 0.4305 35.258 8.8589 9.5094 20.161 13.634 30.465 14.362 17.945 0.3735 29.127-6.9954 32.292-19.597 0.8444-3.3615 0.9578-6.4109-1.6693-9.2708-12.548-13.66-27.685-22.641-46.107-25.615z" fill="#FFEA00"/>
	<path d="m960.77 607.03c-0.2946-0.2629-1.3724-0.1165-1.7214 0.219-6.3563 6.1085-15.08 6.8226-22.812 9.913 13.9 0.9182 26.923-1.6538 38.919-8.8645-4.8883-0.2834-9.8294 2.7983-14.385-1.2675z" fill="#FFEA00"/>
	<path d="m915.15 579.06c-1.3651-0.3342-1.6812 0.6635-1.8389 1.5968-0.1584 0.938-0.0928 2.2583 1.0938 2.1781 0.7372-0.0498 1.583-1.1309 2.05-1.9398 0.7355-1.2739-0.482-1.4906-1.3049-1.8351z" fill="#FFEA00"/>
	<path d="m2079.2 388.81c-5.9756-4.1259-10.389-4.429-16.909-0.748-57.111 32.242-114.48 64.015-173.37 92.958-2.022 0.9939-4.3499 1.5962-5.9967 4.1367 3.1453 5.5514 8.0806 10.352 10.119 16.721 1.4668 4.5835 4.0806 8.1052 7.5122 11.459 8.051 7.8688 13.381 17.368 15.063 28.662 3.3239 22.321-5.3884 40.517-20.244 56.101-15.472 16.23-35.104 25.209-56.95 28.85-17.357 2.8918-34.601 1.5199-50.861-5.9883-13.73-6.34-22.998-16.464-26.84-31.514-4.4442-17.412-3.4755-34.281 4.2655-52.738-4.8597 1.6576-7.959 2.6349-11.002 3.7648-23.09 8.5745-46.364 16.59-70.067 23.322-19.112 5.428-19.51 5.3931-21.719 25.509-3.8315 34.894 5.6366 65.232 32.137 89.36 12.182 11.092 25.917 19.791 40.821 26.66 43.805 20.188 90.102 28.012 137.99 26.561 49.369-1.4948 95.879-14.964 139.94-36.695 40.582-20.017 74.241-48.314 97.214-87.826 26.87-46.214 34.996-95.278 18.84-147-9.0373-28.933-24.318-53.86-49.943-71.553z" fill="#FFEA00"/>
	<path d="m1859.2 510.79c-5.2853-2.1001-10.757-3.3457-16.344-4.345-3.4414-0.6157-6.5796-0.3702-9.7074 1.0566-5.7466 2.6216-11.443 5.3679-17.282 7.7653-3.4805 1.4288-5.0731 4.1392-6.14 7.3527-6.197 18.666 8.6194 39.146 28.237 39.08 15.958-0.0531 30.18-13.248 33.013-30.628 2.0573-12.621 0.3854-15.449-11.776-20.281z" fill="#FFEA00"/>
	<path d="m1850.8 602.12c-6.5105 4.0392-11.731 10.394-19.564 13.01 17.192 1.564 29.819-6.1473 40.203-18.86-7.6868-0.7336-14.991 2.3472-20.638 5.8507z" fill="#FFEA00"/>
	<path d="m1883.2 552.03c6.8591 1.9065 6.8591 1.9065 5.04-6.8879-2.362 1.8387-4.5135 3.75-5.04 6.8879z" fill="#FFEA00"/>
	<path d="m1585.9 793.78c-3.3492-2.2262-7.2352-3.3002-11.057-4.4991-9.1868-2.8822-9.3809-3.4827-4.4091-13.207-1.8724-0.5483-3.1394-0.9242-4.4089-1.2906-40.957-11.821-82.788-16.581-125.36-16.174-30.38 0.2903-60.509 3.2106-90.579 7.1183-2.525 0.328-6.421-0.1338-7.036 2.6378-1.4248 6.4211-6.5552 7.7975-11.284 10.085-2.6293 1.2721-6.1268 2.4026-5.6512 6.0457 0.3628 2.7781 3.275 3.9951 5.8058 4.9727 1.8596 0.7183 3.7172 1.4893 5.6401 1.9875 13.208 3.4224 26.396 7.0006 40.271 6.0336 2.3229-0.1619 4.6364-0.0549 6.8398 0.9908 4.509 2.1406 8.9196 1.5383 13.547-0.0664 4.0531-1.4058 8.3668-2.1672 12.625-2.8284 2.1934-0.3405 5.1489-0.8544 6.3805 1.566 2.1954 4.3156 6.2319 4.1969 9.4896 3.531 9.0784-1.8557 17.84 0.55 26.719 1.0681 10.967 0.64 21.905 1.7894 32.85 2.7791 24.209 2.1885 48.357 5.2032 72.702 5.5579 9.4414 0.1376 18.689-1.0712 26.86-6.2268 4.9982-3.1537 4.9251-6.8421 0.0528-10.081z" fill="#FFEA00"/>
	<path d="m1527.8 826.85c-1.5902-0.0319-3.5706-0.3977-3.3357 2.1976 0.0836 0.9242 0.8485 2.613 1.0902 2.5759 6.3485-0.9784 11.717 0.6108 16.138 5.4219 0.3972 0.4321 1.8916-0.2018 2.8809-0.2466 4.7596-0.2162 7.8087-3.057 11.255-7.7151-8.9712-0.7263-16.52-1.3386-24.069-1.948-1.3192-0.1063-2.6382-0.2593-3.9593-0.2857z" fill="#FFEA00"/>
	<path d="m1628.6 845.13c-4.6836 3.3928-11.685 1.3752-17.798 6.9548 13.562-1.4512 24.68-4.0659 34.925-10.397-5.9168-0.164-11.873-0.3643-17.127 3.4422z" fill="#FFEA00"/>
	<path d="m1433.2 939.7c7.1052 11.574 19.433 12.864 26.985 4.9072-7.5697-5.5565-17.173 1.5496-26.985-4.9072z" fill="#FFEA00"/>
	<path d="m1489.1 832.1c9.4991 4.2458 14.104-5.2142 22.263-5.5151-3.5614-2.8806-6.9811-2.705-10.226-3.0206-8.723-0.8485-8.7276-0.8023-12.037 8.5357z" fill="#FFEA00"/>
	<path d="m1367.8 858.72c2.0024-4.1461 3.0687-8.1289 3.1873-13.119-6.1781 2.9606-10.915 7.1632-18.011 8.8499 5.3623 3.1847 10.138 2.8097 14.824 4.2688z" fill="#FFEA00"/>
	<path d="m1282.3 782.93c8.193 2.8607 10.856-4.8768 15.741-8.2778-6.6773-0.0963-13.051 0.4005-15.741 8.2778z" fill="#FFEA00"/>
	<path d="m1338.7 842.7c-3.9878 3.7917-9.202 5.373-14.281 7.5446 13.748 3.6852 14.753 3.2215 14.281-7.5446z" fill="#FFEA00"/>
	<path d="m1338.7 842.38c0.0049 0.1075 0.0087 0.2075 0.0133 0.313 0.1243-0.1182 0.2512-0.2316 0.373-0.3541l-0.3863 0.0411z" fill="#FFEA00"/>
	<path d="m1338.9 842.93l0.1919-0.588s-0.3864 0.0411-0.3956 0.0527c-0.0094 0.0116 0.2037 0.5353 0.2037 0.5353z" fill="#FFEA00"/>
</svg>
